<svg width="42" height="43" viewBox="0 0 42 43" fill="none" xmlns="http://www.w3.org/2000/svg">
<path d="M12.2501 0.356201H29.7501C36.4167 0.356201 41.8334 5.77287 41.8334 12.4395V29.9395C41.8334 33.1442 40.5604 36.2177 38.2943 38.4837C36.0282 40.7498 32.9548 42.0229 29.7501 42.0229H12.2501C5.58342 42.0229 0.166748 36.6062 0.166748 29.9395V12.4395C0.166748 9.23484 1.43981 6.16139 3.70587 3.89533C5.97194 1.62926 9.04538 0.356201 12.2501 0.356201ZM11.8334 4.52287C9.84429 4.52287 7.93664 5.31304 6.53011 6.71957C5.12359 8.12609 4.33341 10.0337 4.33341 12.0229V30.3562C4.33341 34.502 7.68758 37.8562 11.8334 37.8562H30.1667C32.1559 37.8562 34.0635 37.066 35.4701 35.6595C36.8766 34.253 37.6667 32.3453 37.6667 30.3562V12.0229C37.6667 7.87703 34.3126 4.52287 30.1667 4.52287H11.8334ZM31.9376 7.64787C32.6282 7.64787 33.2906 7.92223 33.779 8.41061C34.2674 8.89899 34.5417 9.56137 34.5417 10.252C34.5417 10.9427 34.2674 11.6051 33.779 12.0935C33.2906 12.5818 32.6282 12.8562 31.9376 12.8562C31.2469 12.8562 30.5845 12.5818 30.0962 12.0935C29.6078 11.6051 29.3334 10.9427 29.3334 10.252C29.3334 9.56137 29.6078 8.89899 30.0962 8.41061C30.5845 7.92223 31.2469 7.64787 31.9376 7.64787ZM21.0001 10.7729C23.7628 10.7729 26.4123 11.8703 28.3658 13.8238C30.3193 15.7773 31.4167 18.4269 31.4167 21.1895C31.4167 23.9522 30.3193 26.6017 28.3658 28.5552C26.4123 30.5087 23.7628 31.6062 21.0001 31.6062C18.2374 31.6062 15.5879 30.5087 13.6344 28.5552C11.6809 26.6017 10.5834 23.9522 10.5834 21.1895C10.5834 18.4269 11.6809 15.7773 13.6344 13.8238C15.5879 11.8703 18.2374 10.7729 21.0001 10.7729ZM21.0001 14.9395C19.3425 14.9395 17.7528 15.598 16.5807 16.7701C15.4086 17.9422 14.7501 19.5319 14.7501 21.1895C14.7501 22.8471 15.4086 24.4368 16.5807 25.609C17.7528 26.7811 19.3425 27.4395 21.0001 27.4395C22.6577 27.4395 24.2474 26.7811 25.4195 25.609C26.5916 24.4368 27.2501 22.8471 27.2501 21.1895C27.2501 19.5319 26.5916 17.9422 25.4195 16.7701C24.2474 15.598 22.6577 14.9395 21.0001 14.9395Z" fill="#F9FAFB"/>
</svg>
