<svg width="38" height="38" viewBox="0 0 38 38" fill="none" xmlns="http://www.w3.org/2000/svg">
<path d="M33.5833 0.439453C34.6884 0.439453 35.7482 0.87844 36.5296 1.65984C37.311 2.44124 37.75 3.50105 37.75 4.60612V33.7728C37.75 34.8779 37.311 35.9377 36.5296 36.7191C35.7482 37.5005 34.6884 37.9395 33.5833 37.9395H4.41667C3.3116 37.9395 2.25179 37.5005 1.47039 36.7191C0.688987 35.9377 0.25 34.8779 0.25 33.7728V4.60612C0.25 3.50105 0.688987 2.44124 1.47039 1.65984C2.25179 0.87844 3.3116 0.439453 4.41667 0.439453H33.5833ZM32.5417 32.7311V21.6895C32.5417 19.8882 31.8261 18.1607 30.5524 16.887C29.2787 15.6133 27.5513 14.8978 25.75 14.8978C23.9792 14.8978 21.9167 15.9811 20.9167 17.6061V15.2936H15.1042V32.7311H20.9167V22.4603C20.9167 20.8561 22.2083 19.5436 23.8125 19.5436C24.586 19.5436 25.3279 19.8509 25.8749 20.3979C26.4219 20.9449 26.7292 21.6867 26.7292 22.4603V32.7311H32.5417ZM8.33333 12.0228C9.26159 12.0228 10.1518 11.654 10.8082 10.9977C11.4646 10.3413 11.8333 9.45104 11.8333 8.52279C11.8333 6.58529 10.2708 5.00195 8.33333 5.00195C7.39955 5.00195 6.50401 5.3729 5.84373 6.03318C5.18344 6.69347 4.8125 7.589 4.8125 8.52279C4.8125 10.4603 6.39583 12.0228 8.33333 12.0228ZM11.2292 32.7311V15.2936H5.45833V32.7311H11.2292Z" fill="#F9FAFB"/>
</svg>
