<svg width="121" height="120" viewBox="0 0 121 120" fill="none" xmlns="http://www.w3.org/2000/svg">
<path d="M60.1875 42.525C50.5125 42.525 42.7125 50.4 42.7125 60C42.7125 69.6 50.5875 77.475 60.1875 77.475C69.7875 77.475 77.6625 69.6 77.6625 60C77.6625 50.4 69.7875 42.525 60.1875 42.525ZM112.688 60C112.688 52.725 112.688 45.6 112.312 38.325C111.938 29.925 109.987 22.425 103.837 16.35C97.6875 10.2 90.2625 8.25 81.8625 7.875C74.5875 7.5 67.4625 7.5 60.1875 7.5C52.9125 7.5 45.7875 7.5 38.5125 7.875C30.1125 8.25 22.6125 10.2 16.5375 16.35C10.3875 22.5 8.4375 29.925 8.0625 38.325C7.6875 45.6 7.6875 52.725 7.6875 60C7.6875 67.275 7.6875 74.4 8.0625 81.675C8.4375 90.075 10.3875 97.575 16.5375 103.65C22.6875 109.8 30.1125 111.75 38.5125 112.125C45.7875 112.5 52.9125 112.5 60.1875 112.5C67.4625 112.5 74.5875 112.5 81.8625 112.125C90.2625 111.75 97.7625 109.8 103.837 103.65C109.987 97.5 111.938 90.075 112.312 81.675C112.762 74.475 112.688 67.275 112.688 60ZM60.1875 86.925C45.2625 86.925 33.2625 74.925 33.2625 60C33.2625 45.075 45.2625 33.075 60.1875 33.075C75.1125 33.075 87.1125 45.075 87.1125 60C87.1125 74.925 75.1125 86.925 60.1875 86.925ZM88.2375 38.25C84.7875 38.25 81.9375 35.475 81.9375 31.95C81.9375 28.425 84.7125 25.65 88.2375 25.65C91.7625 25.65 94.5375 28.425 94.5375 31.95C94.5565 32.7715 94.4065 33.5882 94.0969 34.3494C93.7872 35.1105 93.3246 35.8 92.7375 36.375C92.1625 36.9621 91.473 37.4247 90.7119 37.7344C89.9507 38.044 89.134 38.194 88.3125 38.175L88.2375 38.25Z" fill="black"/>
</svg>
