<svg width="91" height="90" viewBox="0 0 91 90" fill="none" xmlns="http://www.w3.org/2000/svg">
<path d="M80.8125 0C83.4647 0 86.0082 1.05357 87.8836 2.92893C89.7589 4.8043 90.8125 7.34784 90.8125 10V80C90.8125 82.6522 89.7589 85.1957 87.8836 87.0711C86.0082 88.9464 83.4647 90 80.8125 90H10.8125C8.16034 90 5.6168 88.9464 3.74143 87.0711C1.86607 85.1957 0.8125 82.6522 0.8125 80V10C0.8125 7.34784 1.86607 4.8043 3.74143 2.92893C5.6168 1.05357 8.16034 0 10.8125 0H80.8125ZM78.3125 77.5V51C78.3125 46.677 76.5952 42.531 73.5383 39.4742C70.4815 36.4173 66.3355 34.7 62.0125 34.7C57.7625 34.7 52.8125 37.3 50.4125 41.2V35.65H36.4625V77.5H50.4125V52.85C50.4125 49 53.5125 45.85 57.3625 45.85C59.219 45.85 60.9995 46.5875 62.3122 47.9003C63.625 49.213 64.3625 50.9935 64.3625 52.85V77.5H78.3125ZM20.2125 27.8C22.4403 27.8 24.5769 26.915 26.1522 25.3397C27.7275 23.7644 28.6125 21.6278 28.6125 19.4C28.6125 14.75 24.8625 10.95 20.2125 10.95C17.9714 10.95 15.8221 11.8403 14.2374 13.4249C12.6528 15.0096 11.7625 17.1589 11.7625 19.4C11.7625 24.05 15.5625 27.8 20.2125 27.8ZM27.1625 77.5V35.65H13.3125V77.5H27.1625Z" fill="black"/>
</svg>
