<svg width="121" height="120" viewBox="0 0 121 120" fill="none" xmlns="http://www.w3.org/2000/svg">
<path d="M110.387 32.735C110.341 30.5901 110.169 28.4498 109.872 26.325C109.514 24.4353 108.904 22.6023 108.058 20.875C106.208 17.2209 103.241 14.252 99.5875 12.4C97.871 11.5586 96.0499 10.9499 94.1725 10.59C92.0314 10.2882 89.8743 10.1129 87.7125 10.065C86.7975 10.03 85.6125 10.015 85.0625 10.015L35.8225 10C35.2725 10 34.0875 10.015 33.1725 10.05C31.0276 10.0965 28.8873 10.2685 26.7625 10.565C24.8728 10.9235 23.0398 11.5339 21.3125 12.38C17.6584 14.2299 14.6895 17.197 12.8375 20.85C11.9961 22.5665 11.3874 24.3876 11.0275 26.265C10.724 28.406 10.547 30.5631 10.4975 32.725C10.4675 33.64 10.4475 34.825 10.4475 35.375L10.4375 84.615C10.4375 85.165 10.4525 86.35 10.4875 87.265C10.534 89.4099 10.706 91.5502 11.0025 93.675C11.361 95.5647 11.9714 97.3977 12.8175 99.125C14.6674 102.779 17.6345 105.748 21.2875 107.6C23.004 108.441 24.8251 109.05 26.7025 109.41C28.8436 109.712 31.0007 109.887 33.1625 109.935C34.0775 109.97 35.2625 109.985 35.8125 109.985L85.0525 109.995C85.6025 109.995 86.7875 109.98 87.7025 109.945C89.8474 109.898 91.9877 109.727 94.1125 109.43C96.0022 109.072 97.8352 108.461 99.5625 107.615C103.218 105.766 106.189 102.799 108.042 99.145C108.884 97.4285 109.493 95.6074 109.852 93.73C110.156 91.589 110.333 89.4319 110.382 87.27C110.412 86.355 110.433 85.17 110.433 84.62L110.438 35.385C110.438 34.835 110.423 33.65 110.387 32.735ZM61.5225 94.785H61.5075C55.5551 94.7894 49.6972 93.2969 44.4725 90.445L25.5725 95.4L30.6325 76.935C26.7148 70.1366 25.1494 62.2355 26.179 54.4569C27.2086 46.6783 30.7758 39.4566 36.3274 33.9117C41.879 28.3667 49.1048 24.8081 56.8847 23.7877C64.6645 22.7673 72.5637 24.3421 79.3575 28.268C86.1512 32.1938 91.46 38.2513 94.4607 45.5013C97.4615 52.7513 97.9865 60.7888 95.9545 68.3676C93.9224 75.9464 89.4467 82.643 83.2214 87.4193C76.9961 92.1956 69.369 94.7846 61.5225 94.785Z" fill="black"/>
<path d="M61.5375 29.505C56.2429 29.5035 51.0446 30.9204 46.4831 33.6084C41.9217 36.2965 38.1637 40.1575 35.5999 44.79C33.0361 49.4224 31.7602 54.6571 31.9049 59.9497C32.0496 65.2423 33.6095 70.3995 36.4225 74.885L37.1275 76.005L34.1325 86.935L45.3475 83.995L46.4275 84.635C50.9912 87.343 56.2009 88.7697 61.5075 88.765H61.5225C69.3815 88.7663 76.9192 85.6456 82.4773 80.0894C88.0354 74.5331 91.1587 66.9965 91.16 59.1375C91.1613 51.2785 88.0406 43.7408 82.4844 38.1827C76.9281 32.6246 69.3915 29.5013 61.5325 29.5L61.5375 29.505ZM78.9575 71.855C78.303 72.9381 77.431 73.8737 76.3966 74.6027C75.3621 75.3316 74.1877 75.8381 72.9475 76.09C71.0757 76.4116 69.1548 76.2917 67.3375 75.74C65.6131 75.2054 63.919 74.5778 62.2625 73.86C56.1111 70.773 50.868 66.1398 47.0475 60.415C44.9626 57.7653 43.6974 54.5641 43.4075 51.205C43.3844 49.8187 43.6498 48.4427 44.1869 47.1645C44.7241 45.8863 45.5211 44.7337 46.5275 43.78C46.8261 43.4416 47.1909 43.1681 47.5994 42.9763C48.0079 42.7845 48.4514 42.6786 48.9025 42.665C49.4925 42.665 50.0875 42.665 50.6075 42.695C51.1575 42.72 51.8875 42.485 52.6075 44.225C53.3575 46.005 55.1375 50.39 55.3575 50.835C55.4979 51.0686 55.5782 51.3333 55.5913 51.6056C55.6043 51.8778 55.5498 52.149 55.4325 52.395C55.2092 52.9304 54.9094 53.4306 54.5425 53.88C54.0925 54.4 53.6075 55.04 53.2075 55.44C52.7575 55.885 52.2975 56.365 52.8125 57.255C54.1522 59.5439 55.8218 61.6229 57.7675 63.425C59.8829 65.3007 62.307 66.7961 64.9325 67.845C65.8225 68.295 66.3425 68.215 66.8625 67.62C67.3825 67.025 69.0875 65.02 69.6825 64.13C70.2775 63.24 70.8675 63.39 71.6825 63.685C72.4975 63.98 76.8825 66.135 77.7725 66.585C78.6625 67.035 79.2575 67.25 79.4775 67.62C79.7178 69.0522 79.5372 70.5235 78.9575 71.855Z" fill="black"/>
</svg>
